<?xml version="1.0" encoding="utf-8"?>
<!-- Generator: Adobe Illustrator 21.0.0, SVG Export Plug-In . SVG Version: 6.00 Build 0)  -->
<svg version="1.1" id="圖層_1" xmlns="http://www.w3.org/2000/svg" xmlns:xlink="http://www.w3.org/1999/xlink" x="0px" y="0px" width="48px" height="48px"
	 viewBox="0 0 100 100" style="enable-background:new 0 0 100 100;" xml:space="preserve">
<g>
	<path fill="#222" d="M80.698,86.807c2.156,0,3.307,1.366,3.307,4.233c0,2.595-1.151,3.96-3.307,3.96H19.54c-1.958,0-3.544-1.507-3.544-3.366
		v-5.373c0-14.611,13.084-24.852,27.319-34.002c3.594-2.184,7.045-4.506,10.352-6.554c3.308-2.185,6.327-4.233,9.059-6.281
		c5.32-4.233,9.489-8.876,9.489-14.338v-0.56c0-5.462-3.738-11.061-10.639-11.061h-24.3c-7.908,0-12.077,3.96-12.077,12.699
		c0,2.049-1.726,3.414-4.745,3.414c-2.731,0-4.457-1.365-4.457-3.414C15.995,14.285,23.472,5,36.7,5h23.581
		c12.365,0,20.992,8.739,20.992,19.117v1.242c0,12.153-12.797,20.892-26.744,29.768c-3.451,2.184-7.189,4.37-10.209,6.418
		c-3.307,2.321-6.47,4.505-9.202,6.691c-5.176,4.506-9.059,9.559-9.059,15.567v3.004H80.698z"/>
</g>
<g>
	<path fill="#444" d="M76.914,80.759V64.988c0-0.685-0.029-1.247-0.086-1.684c-0.057-0.437-0.146-0.783-0.267-1.038
		c-0.121-0.255-0.275-0.435-0.462-0.537c-0.186-0.102-0.416-0.153-0.692-0.153c-0.324,0-0.624,0.087-0.899,0.262
		c-0.275,0.175-0.572,0.459-0.887,0.853c-0.316,0.394-0.664,0.916-1.045,1.565c-0.381,0.649-0.829,1.447-1.347,2.395v14.109h-3.863
		V65.403c0-0.802-0.029-1.451-0.086-1.947c-0.057-0.496-0.146-0.882-0.267-1.159c-0.121-0.277-0.279-0.467-0.473-0.569
		c-0.194-0.102-0.429-0.153-0.704-0.153c-0.292,0-0.567,0.073-0.826,0.219c-0.259,0.146-0.547,0.408-0.863,0.787
		c-0.316,0.379-0.667,0.897-1.056,1.553c-0.389,0.656-0.85,1.495-1.385,2.516v14.109h-3.887V58.797h3.231l0.194,4.178
		c0.421-0.831,0.829-1.538,1.226-2.122s0.807-1.053,1.228-1.41c0.421-0.357,0.87-0.62,1.347-0.787s1.009-0.252,1.592-0.252
		c1.312,0,2.308,0.386,2.988,1.159c0.68,0.773,1.02,1.969,1.02,3.587c0.389-0.758,0.769-1.432,1.142-2.023
		c0.372-0.591,0.772-1.086,1.202-1.487s0.904-0.707,1.422-0.919c0.518-0.211,1.117-0.318,1.798-0.318
		c3.061,0,4.591,2.122,4.591,6.365v15.99H76.914z"/>
</g>
</svg>
