<?xml version="1.0" encoding="utf-8"?>
<!-- Generator: Adobe Illustrator 21.0.0, SVG Export Plug-In . SVG Version: 6.00 Build 0)  -->
<svg version="1.1" id="Layer_1" xmlns="http://www.w3.org/2000/svg" xmlns:xlink="http://www.w3.org/1999/xlink" x="0px" y="0px"
	 viewBox="0 0 195 64" enable-background="new 0 0 195 64" xml:space="preserve">
<g>
	<g>
		<polygon fill="#B92025" points="145.5,32.4 125.8,57.4 130.4,57.4 150,32.4 		"/>
	</g>
	<g>
		<g>
			<g>
				<path fill="#B92025" d="M70.1,35.2H8.4c-0.8,0-1.5-0.6-1.6-1.4c-0.1-0.8-0.1-2.2,0-3.6c0-0.5,0-1,0-1.4c0-13.2,8.8-22.1,22-22.1
					c9.9,0,17.7,5.1,21.3,13.8c2.3-3.1,5.8-5,9.5-5c7.2,0,12.2,4.9,12.2,11.9v6.2C71.7,34.5,71,35.2,70.1,35.2z M10,31.9h58.5v-4.5
					c0-6-4.5-8.7-8.9-8.7c-3.6,0-7,2.6-8.3,6.4c-0.2,0.7-0.8,1.1-1.6,1.1c-0.7,0-1.3-0.5-1.5-1.2c-2.4-9.5-9.7-15.1-19.4-15.1
					c-11.4,0-18.7,7.4-18.7,18.9c0,0.4,0,0.9,0,1.5C10,30.8,10,31.4,10,31.9z"/>
			</g>
		</g>
		<g>
			<g>
				<path fill="#ffffff" d="M65.5,48.4c-4.5,0-8.3-3.1-9.8-7.5c-2.4,9.4-9.6,16.4-21,16.4c-11.6,0-20.4-7.5-20.4-20.5
					c0-1.3-0.1-3.8,0-4.8H76c0,2.1,0,4.5,0,6.2C76,44.6,71.3,48.4,65.5,48.4z"/>
			</g>
		</g>
	</g>
	<g>
		<path fill="#ffffff" d="M105.5,39c4.7,0,8,0.7,10.4,1.6v-3.8c-2-0.6-5.2-1.3-10.3-1.3c-6.5,0-9.6,1.3-11.1,2.8
			c-1.4,1.4-2.1,3.3-2.1,5.8s0.7,4.3,2.1,5.8c1.6,1.6,4.6,2.8,10.9,2.8c5.1,0,8.2-0.7,10.1-2.6c1.1-1.1,1.6-2.5,1.6-5.1v-2.1H103
			v3.2h9.9c0,0.4,0,1.2-0.5,1.8c-1,1-3.6,1.4-6.9,1.4c-4.1,0-6.3-0.8-7.3-1.8C97.4,46.6,97,45.5,97,44c0-1.5,0.4-2.6,1.2-3.4
			C99.1,39.7,101.3,39,105.5,39C105.5,39,101.3,39,105.5,39L105.5,39L105.5,39z"/>
	</g>
	<g>
		<path fill="#ffffff" d="M184.5,36h-5.3l-8.5,12.6L162.3,36h-5.5l11,16h5.6l0,0L184.5,36L184.5,36z"/>
	</g>
	<g>
		<path fill="#ffffff" d="M149.2,38.3c-1.5-1.5-4.4-2.9-10.8-2.9c-6.1,0-9.3,1.3-10.8,2.9c-1.4,1.4-2.1,3.1-2.1,5.7s0.8,4.3,2.1,5.7
			c1.5,1.5,4.5,2.9,10.8,2.9c6.3,0,9.3-1.4,10.8-2.9c1.4-1.4,2.1-3.1,2.1-5.7C151.3,41.4,150.6,39.7,149.2,38.3z M138.4,49.1
			c-4.1,0-6.2-0.8-7.2-1.8c-0.7-0.7-1.2-1.6-1.2-3.4s0.4-2.7,1.2-3.4c0.9-0.9,3.1-1.7,7.2-1.7c4.1,0,6.2,0.8,7.1,1.7
			c0.8,0.8,1.2,1.6,1.2,3.4s-0.4,2.7-1.2,3.4C144.6,48.4,142.5,49.1,138.4,49.1z"/>
	</g>
	<g>
		<path fill="#ffffff" d="M93.9,22v3.9h-2.7V14.4h4.5c0.9,0,1.6,0.2,2.3,0.5c0.7,0.3,1.2,0.8,1.6,1.4s0.6,1.3,0.6,2
			c0,1.1-0.4,2-1.2,2.7c-0.8,0.7-1.9,1-3.3,1H93.9z M93.9,19.8h1.8c0.5,0,0.9-0.1,1.2-0.4c0.3-0.3,0.4-0.6,0.4-1.1
			c0-0.5-0.1-1-0.4-1.3c-0.3-0.3-0.7-0.5-1.2-0.5h-1.8V19.8z"/>
		<path fill="#ffffff" d="M111.2,20.4c0,1.1-0.2,2.1-0.6,2.9c-0.4,0.9-1,1.5-1.8,2s-1.6,0.7-2.6,0.7s-1.8-0.2-2.6-0.7
			s-1.3-1.1-1.8-1.9c-0.4-0.8-0.6-1.8-0.7-2.9v-0.6c0-1.1,0.2-2.1,0.6-2.9c0.4-0.9,1-1.5,1.8-2c0.8-0.5,1.6-0.7,2.6-0.7
			c1,0,1.8,0.2,2.6,0.7c0.8,0.5,1.3,1.1,1.8,2c0.4,0.8,0.6,1.8,0.6,2.9V20.4z M108.4,19.9c0-1.1-0.2-2-0.6-2.6
			c-0.4-0.6-0.9-0.9-1.6-0.9c-1.4,0-2.1,1-2.2,3.1l0,0.8c0,1.1,0.2,2,0.6,2.6c0.4,0.6,0.9,0.9,1.6,0.9c0.7,0,1.2-0.3,1.6-0.9
			s0.6-1.4,0.6-2.5V19.9z"/>
		<path fill="#ffffff" d="M121.4,21.6l1.3-7.1h2.7L123,25.8h-2.8l-1.5-6.5l-1.5,6.5h-2.8l-2.4-11.4h2.7l1.3,7.1l1.6-7.1h2.3
			L121.4,21.6z"/>
		<path fill="#ffffff" d="M133.6,21h-4.3v2.7h5.1v2.1h-7.8V14.4h7.9v2.1h-5.1V19h4.3V21z"/>
		<path fill="#ffffff" d="M139.7,21.8h-1.5v4h-2.7V14.4h4.5c1.3,0,2.4,0.3,3.2,0.9s1.1,1.4,1.1,2.5c0,0.8-0.2,1.4-0.5,2
			s-0.8,0.9-1.5,1.3l2.4,4.6v0.1h-2.9L139.7,21.8z M138.2,19.7h1.7c0.5,0,0.9-0.1,1.2-0.4s0.4-0.7,0.4-1.1c0-0.5-0.1-0.9-0.4-1.2
			s-0.7-0.4-1.2-0.4h-1.7V19.7z"/>
		<path fill="#ffffff" d="M153,21h-4.3v2.7h5.1v2.1h-7.8V14.4h7.9v2.1h-5.1V19h4.3V21z"/>
		<path fill="#ffffff" d="M154.9,25.8V14.4h3.7c1,0,1.9,0.2,2.7,0.7s1.4,1.1,1.9,1.9s0.7,1.8,0.7,2.8v0.5c0,1-0.2,2-0.7,2.8
			s-1.1,1.5-1.9,1.9s-1.7,0.7-2.7,0.7H154.9z M157.6,16.6v7.1h1c0.8,0,1.4-0.3,1.8-0.8s0.6-1.4,0.6-2.5v-0.5c0-1.1-0.2-1.9-0.6-2.5
			s-1-0.8-1.8-0.8H157.6z"/>
		<path fill="#ffffff" d="M169.2,25.8V14.4h4.1c1.5,0,2.6,0.3,3.3,0.8s1.1,1.3,1.1,2.3c0,0.6-0.1,1.1-0.4,1.5s-0.7,0.7-1.2,0.9
			c0.6,0.2,1,0.4,1.4,0.9s0.5,0.9,0.5,1.6c0,1.1-0.4,2-1.1,2.5s-1.8,0.8-3.1,0.9H169.2z M171.9,19.2h1.4c0.6,0,1-0.1,1.3-0.3
			s0.4-0.5,0.4-0.9c0-0.5-0.1-0.8-0.4-1s-0.7-0.3-1.3-0.3h-1.3V19.2z M171.9,21v2.7h1.8c0.5,0,0.9-0.1,1.1-0.3s0.4-0.5,0.4-1
			c0-0.9-0.5-1.4-1.4-1.4H171.9z"/>
		<path fill="#ffffff" d="M183.2,19.4l2.1-4.9h3l-3.7,7.3v4.1h-2.8v-4.1l-3.7-7.3h2.9L183.2,19.4z"/>
	</g>
</g>
</svg>
